<svg id="SvgjsSvg1042" width="360" height="275" xmlns="http://www.w3.org/2000/svg" version="1.1" xmlns:xlink="http://www.w3.org/1999/xlink" xmlns:svgjs="http://svgjs.com/svgjs"><defs id="SvgjsDefs1043"><svg width="112px" height="112px" xmlns="http://www.w3.org/2000/svg" xmlns:xlink="http://www.w3.org/1999/xlink" viewBox="0 0 34 32" version="1.1" x="0px" y="0px" id="a1488861547725"><title>Group 31</title><desc>Created with Sketch.</desc><g old_stroke="none" stroke-width="1" old_fill="none" fill-rule="evenodd"><g transform="translate(-76.000000, -478.000000)" old_fill="#000000"><g transform="translate(76.000000, 478.000000)"><path d="M29,26 L7,26 C6.668,26 6.358,25.835 6.172,25.56 C5.986,25.286 5.948,24.936 6.071,24.628 L7.979,19.858 L6.1,2 L0,2 L0,0 L7,0 C7.512,0 7.941,0.386 7.995,0.895 L9.995,19.896 C10.012,20.057 9.989,20.22 9.929,20.372 L8.477,24 L29,24 L29,26"></path><path d="M9.204,20.979 L8.796,19.021 L32,14.187 L32,6 L8,6 L8,4 L33,4 C33.552,4 34,4.448 34,5 L34,15 C34,15.474 33.668,15.882 33.204,15.979 L9.204,20.979"></path><path d="M30,32 C27.794,32 26,30.206 26,28 C26,25.794 27.794,24 30,24 C32.206,24 34,25.794 34,28 C34,30.206 32.206,32 30,32 L30,32 Z M30,26 C28.897,26 28,26.897 28,28 C28,29.103 28.897,30 30,30 C31.103,30 32,29.103 32,28 C32,26.897 31.103,26 30,26 L30,26 Z"></path><path d="M6,32 C3.794,32 2,30.206 2,28 C2,25.794 3.794,24 6,24 C8.206,24 10,25.794 10,28 C10,30.206 8.206,32 6,32 L6,32 Z M6,26 C4.897,26 4,26.897 4,28 C4,29.103 4.897,30 6,30 C7.103,30 8,29.103 8,28 C8,26.897 7.103,26 6,26 L6,26 Z"></path></g></g></g></svg><!--?xml version="1.0"?-->
<svg width="739.48844444444px" height="264.44444444444px" id="t1488861547725"><path fill="#00db76" d="M31.6,64.444444444444l0-43.048888888889l-5.22,0l-0.25777777777778,5.0911111111111l-4.7688888888889,0l0-10.375555555555l26.486666666666,0l0,10.375555555555l-4.8333333333333,0l-0.19333333333333-5.0911111111111l-5.3488888888889,0l0,43.048888888889l-5.8644444444444,0z M58.202666666666,37.635555555555l11.664444444444,0l0,5.8644444444444l-11.664444444444,0l0,15.08l14.822222222222,0l0,5.8644444444444l-20.686666666667,0l0-48.268888888889l19.784444444444,0l0,5.8644444444444l-13.92,0l0,15.595555555555z M94.987555555555,64.444444444444l-7.6044444444444-23.006666666667l-0.25777777777778,0l-7.7333333333333,23.006666666667l-6.1866666666666,0l9.2799999999999-26.357777777778l-7.6688888888888-21.911111111111l6.2511111111111,0l6.0577777777777,18.56l0.25777777777778,0l5.9933333333333-18.56l6.1222222222222,0l-7.4111111111111,21.911111111111l9.0866666666666,26.357777777778l-6.1866666666666,0z M108.95911111111,64.444444444444l0-43.048888888889l-8.5066666666666,0l0-5.2844444444444l22.942222222222,0l0,5.2844444444444l-8.5711111111111,0l0,43.048888888889l-5.8644444444444,0z M144.64844444444,30.353333333333l0-4.9622222222222l-3.6733333333333-3.8022222222222l-4.1888888888889,0l-3.6088888888889,3.8022222222222l0,29.386666666666l3.6733333333333,4.1244444444444l4.06,0l3.7377777777778-4.1244444444444l0-5.3488888888889l5.8644444444444-0.064444444444444l0,7.6044444444444l-7.0244444444444,7.7977777777777l-9.2155555555555,0l-6.96-7.7977777777777l0-33.897777777778l7.0244444444444-7.3466666666666l9.151111111111,0l7.0244444444444,7.3466666666666l0,7.2822222222222l-5.8644444444444,0z M170.15555555555,46.528888888889l0,17.915555555555l-5.8644444444444,0l0-17.915555555555l-11.084444444444-30.417777777778l6.3155555555555,0l3.9311111111111,11.213333333333l3.8022222222222,12.373333333333l3.8666666666666-12.566666666667l3.9311111111111-11.02l6.1866666666666,0z M201.91377777778,30.353333333333l0-4.9622222222222l-3.6733333333333-3.8022222222222l-4.1888888888889,0l-3.6088888888889,3.8022222222222l0,29.386666666666l3.6733333333333,4.1244444444444l4.06,0l3.7377777777778-4.1244444444444l0-5.3488888888889l5.8644444444444-0.064444444444444l0,7.6044444444444l-7.0244444444444,7.7977777777777l-9.2155555555555,0l-6.96-7.7977777777777l0-33.897777777778l7.0244444444444-7.3466666666666l9.151111111111,0l7.0244444444444,7.3466666666666l0,7.2822222222222l-5.8644444444444,0z M214.40311111111,16.175555555555l5.8644444444444,0l0,42.662222222222l14.564444444444,0l0,5.6066666666666l-20.428888888889,0l0-48.268888888889z M244.808,37.635555555555l11.664444444444,0l0,5.8644444444444l-11.664444444444,0l0,15.08l14.822222222222,0l0,5.8644444444444l-20.686666666667,0l0-48.268888888889l19.784444444444,0l0,5.8644444444444l-13.92,0l0,15.595555555555z"></path></svg>
</defs><use id="SvgjsUse1044" xlink:href="#t1488861547725" fill="#00db76" x="100.50822257995605" y="96.75444984436035"></use><use id="SvgjsUse1045" xlink:href="#a1488861547725" fill="#00db76" stroke="#00db76" x="-0.1384429931640625" y="81.00000309944153"></use></svg>